<?xml version="1.0" ?><svg enable-background="new 0 0 297.43 42.991" id="Layer_1" version="1.1" viewBox="0 0 297.43 42.991" xml:space="preserve" xmlns="http://www.w3.org/2000/svg" xmlns:xlink="http://www.w3.org/1999/xlink"><path d="M133.82,11.178h-15.15v1.607c4.739,0,5.501,1.016,5.501,7.025v10.834c0,6.009-0.762,7.109-5.501,7.109  c-3.639-0.508-6.094-2.455-9.48-6.179l-3.892-4.231c5.247-0.932,8.04-4.232,8.04-7.957c0-4.654-3.977-8.209-11.426-8.209H87.016  v1.607c4.739,0,5.501,1.016,5.501,7.025v10.834c0,6.009-0.762,7.109-5.501,7.109v1.607h16.843v-1.607  c-4.739,0-5.501-1.101-5.501-7.109v-3.045h1.438l9.395,11.764h24.63c12.103,0,17.351-6.432,17.351-14.135  C151.171,17.526,145.923,11.178,133.82,11.178z M98.357,24.973V13.717h3.47c3.809,0,5.502,2.623,5.502,5.67  c0,2.963-1.693,5.586-5.502,5.586H98.357z M134.074,36.739h-0.593c-3.047,0-3.47-0.762-3.47-4.655V13.717c0,0,3.724,0,4.063,0  c8.802,0,10.41,6.432,10.41,11.426C144.484,30.306,142.876,36.739,134.074,36.739z" fill="#464342"/><path d="M39.874,28.106l5.84-17.267c1.693-4.993,0.932-6.432-4.485-6.432V2.714h15.912v1.693  c-5.332,0-6.602,1.27-8.718,7.448l-9.649,28.946h-1.1L29.04,14.309l-8.802,26.492h-1.101L9.743,11.855  C7.712,5.676,6.357,4.407,1.448,4.407V2.714h18.79v1.693c-4.994,0-6.349,1.185-4.57,6.432l5.67,17.267l8.549-25.392h1.608  L39.874,28.106z" fill="#464342"/><path d="M68.649,40.463c-9.31,0-16.928-6.856-16.928-15.235c0-8.294,7.618-15.15,16.928-15.15  c9.311,0,16.928,6.856,16.928,15.15C85.577,33.607,77.96,40.463,68.649,40.463z M68.649,12.702c-7.786,0-10.495,7.024-10.495,12.525  c0,5.587,2.709,12.527,10.495,12.527c7.872,0,10.58-6.94,10.58-12.527C79.229,19.726,76.521,12.702,68.649,12.702z" fill="#464342"/><path d="M172.075,37.67v1.692h-19.382V37.67c5.671,0,6.686-1.439,6.686-9.903V14.225  c0-8.465-1.016-9.818-6.686-9.818V2.714h17.52c8.718,0,13.543,4.486,13.543,10.496c0,5.84-4.825,10.41-13.543,10.41h-4.824v4.146  C165.388,36.231,166.404,37.67,172.075,37.67z M170.213,5.76h-4.824v14.728h4.824c4.74,0,6.94-3.301,6.94-7.278  C177.153,9.147,174.953,5.76,170.213,5.76z" fill="#464342"/><path d="M241.9,31.407l-0.423,1.523c-0.762,2.793-1.693,3.809-7.702,3.809h-1.186c-4.4,0-5.162-1.016-5.162-7.025  v-3.893c6.602,0,7.109,0.592,7.109,4.993h1.608V18.203h-1.608c0,4.401-0.508,4.993-7.109,4.993v-9.479h4.654  c6.01,0,6.94,1.016,7.702,3.809l0.424,1.607h1.354l-0.592-7.955h-24.884v1.607c4.739,0,5.501,1.016,5.501,7.025v10.834  c0,5.497-0.647,6.882-4.384,7.079c-3.552-0.542-5.99-2.479-9.326-6.148l-3.894-4.231c5.248-0.932,8.041-4.232,8.041-7.957  c0-4.654-3.977-8.209-11.426-8.209h-14.896v1.607c4.739,0,5.501,1.016,5.501,7.025v10.834c0,6.009-0.762,7.109-5.501,7.109v1.607  h16.843v-1.607c-4.739,0-5.501-1.101-5.501-7.109v-3.046h1.439l9.395,11.764h34.785l0.508-7.955  C243.17,31.407,241.9,31.407,241.9,31.407z M197.044,24.973V13.717h3.47c3.809,0,5.502,2.623,5.502,5.67  c0,2.963-1.693,5.586-5.502,5.586H197.044z" fill="#464342"/><path d="M259.082,40.463c-3.386,0-6.349-1.777-7.618-2.878c-0.423,0.424-1.185,1.693-1.354,2.878h-1.608v-11.68  h1.692c0.678,5.586,4.57,8.887,9.564,8.887c2.708,0,4.909-1.523,4.909-4.063c0-2.2-1.947-3.893-5.417-5.501l-4.824-2.285  c-3.386-1.609-5.925-4.402-5.925-8.126c0-4.063,3.809-7.532,9.057-7.532c2.793,0,5.162,1.016,6.602,2.2  c0.423-0.339,0.846-1.271,1.1-2.286h1.608v9.988h-1.777c-0.593-3.978-2.793-7.279-7.278-7.279c-2.37,0-4.571,1.354-4.571,3.471  c0,2.2,1.777,3.385,5.841,5.247l4.654,2.285c4.063,1.946,5.671,5.079,5.671,7.618C269.407,36.739,264.752,40.463,259.082,40.463z" fill="#464342"/><path d="M285.149,40.463c-3.386,0-6.349-1.777-7.618-2.878c-0.423,0.424-1.185,1.693-1.354,2.878h-1.608v-11.68  h1.692c0.678,5.586,4.57,8.887,9.564,8.887c2.708,0,4.909-1.523,4.909-4.063c0-2.2-1.947-3.893-5.417-5.501l-4.824-2.285  c-3.386-1.609-5.925-4.402-5.925-8.126c0-4.063,3.809-7.532,9.057-7.532c2.793,0,5.162,1.016,6.602,2.2  c0.423-0.339,0.846-1.271,1.1-2.286h1.608v9.988h-1.777c-0.593-3.978-2.793-7.279-7.278-7.279c-2.37,0-4.571,1.354-4.571,3.471  c0,2.2,1.777,3.385,5.841,5.247l4.654,2.285c4.064,1.946,5.671,5.079,5.671,7.618C295.474,36.739,290.819,40.463,285.149,40.463z" fill="#464342"/></svg>